<svg width="41" height="40" viewBox="0 0 41 40" fill="none" xmlns="http://www.w3.org/2000/svg">
<g clip-path="url(#clip0_61_458)">
<path d="M17.7014 5.93379C17.588 5.82008 17.4533 5.72986 17.3049 5.66831C17.1566 5.60676 16.9976 5.57507 16.837 5.57507C16.6764 5.57507 16.5174 5.60676 16.369 5.66831C16.2207 5.72986 16.0859 5.82008 15.9725 5.93379L1.32061 20.5857C1.2073 20.6993 1.11749 20.8341 1.05631 20.9824C0.995137 21.1308 0.963796 21.2897 0.964083 21.4502V38.544C0.964083 38.8679 1.09272 39.1784 1.3217 39.4074C1.55068 39.6364 1.86125 39.765 2.18507 39.765H13.174C13.4978 39.765 13.8084 39.6364 14.0374 39.4074C14.2664 39.1784 14.395 38.8679 14.395 38.544V28.7761H19.279V38.544C19.279 38.8679 19.4076 39.1784 19.6366 39.4074C19.8656 39.6364 20.1761 39.765 20.5 39.765H31.4889C31.8127 39.765 32.1233 39.6364 32.3523 39.4074C32.5812 39.1784 32.7099 38.8679 32.7099 38.544V21.4502C32.7102 21.2897 32.6788 21.1308 32.6176 20.9824C32.5565 20.8341 32.4667 20.6993 32.3533 20.5857L29.0469 17.2817V9.24023C29.0469 8.9164 28.9183 8.60584 28.6893 8.37686C28.4603 8.14788 28.1497 8.01924 27.8259 8.01924H25.3839C25.0601 8.01924 24.7495 8.14788 24.5206 8.37686C24.2916 8.60584 24.1629 8.9164 24.1629 9.24023V12.3977L17.7014 5.93379ZM3.40607 37.323V21.9556L16.837 8.52473L30.2679 21.9556V37.323H21.7209V27.5551C21.7209 27.2313 21.5923 26.9207 21.3633 26.6917C21.1343 26.4628 20.8238 26.3341 20.5 26.3341H13.174C12.8502 26.3341 12.5396 26.4628 12.3106 26.6917C12.0817 26.9207 11.953 27.2313 11.953 27.5551V37.323H3.40607Z" fill="#FFFBFB" fill-opacity="0.65"/>
<path d="M25.0273 5.93379C24.9139 5.82008 24.7792 5.72986 24.6308 5.66831C24.4825 5.60676 24.3235 5.57507 24.1629 5.57507C24.0023 5.57507 23.8432 5.60676 23.6949 5.66831C23.5466 5.72986 23.4118 5.82008 23.2984 5.93379L8.64651 20.5857C8.5332 20.6993 8.44339 20.8341 8.38221 20.9824C8.32103 21.1308 8.28969 21.2897 8.28998 21.4502V38.544C8.28998 38.8679 8.41862 39.1784 8.6476 39.4074C8.87658 39.6364 9.18714 39.765 9.51097 39.765H20.4999C20.8237 39.765 21.1343 39.6364 21.3633 39.4074C21.5923 39.1784 21.7209 38.8679 21.7209 38.544V28.7761H26.6049V38.544C26.6049 38.8679 26.7335 39.1784 26.9625 39.4074C27.1915 39.6364 27.502 39.765 27.8259 39.765H38.8148C39.1386 39.765 39.4492 39.6364 39.6782 39.4074C39.9071 39.1784 40.0358 38.8679 40.0358 38.544V21.4502C40.0361 21.2897 40.0047 21.1308 39.9435 20.9824C39.8824 20.8341 39.7926 20.6993 39.6792 20.5857L36.3728 17.2817V9.24023C36.3728 8.9164 36.2442 8.60584 36.0152 8.37686C35.7862 8.14788 35.4756 8.01924 35.1518 8.01924H32.7098C32.386 8.01924 32.0754 8.14788 31.8464 8.37686C31.6175 8.60584 31.4888 8.9164 31.4888 9.24023V12.3977L25.0273 5.93379ZM10.732 37.323V21.9556L24.1629 8.52473L37.5938 21.9556V37.323H29.0468V27.5551C29.0468 27.2313 28.9182 26.9207 28.6892 26.6917C28.4602 26.4628 28.1497 26.3341 27.8259 26.3341H20.4999C20.1761 26.3341 19.8655 26.4628 19.6365 26.6917C19.4075 26.9207 19.2789 27.2313 19.2789 27.5551V37.323H10.732Z" fill="#1E3240"/>
</g>
<defs>
<clipPath id="clip0_61_458">
<rect width="39.0717" height="39.0717" fill="white" transform="translate(0.964111 0.691162)"/>
</clipPath>
</defs>
</svg>
