<svg width="65" height="102" viewBox="0 0 65 102" fill="none" xmlns="http://www.w3.org/2000/svg">
<g id="Illustration-4">
<path id="Vector" d="M42.2705 53.7279C40.5362 55.7375 39.3644 58.1702 38.874 60.7789L32.0665 64.5983V46.5479L32.1955 46.7342L43.0515 38.7874C44.4202 39.0024 49.687 39.6043 54.5167 37.0175C60.0486 34.0151 64.1187 23.7036 64.1187 23.7036C64.1187 23.7036 50.8407 22.206 46.3406 27.7737C43.8726 30.6643 42.5585 34.3642 42.6503 38.164L32.0665 45.9173V32.5891C34.0476 31.6662 35.7987 30.3143 37.1929 28.6313C38.5872 26.9483 39.5897 24.9763 40.1279 22.8581C42.0555 15.3556 31.7727 0.572754 31.7727 0.572754C31.7727 0.572754 21.06 15.7855 23.1739 23.503C24.9868 30.0381 29.8667 32.1018 31.3213 32.5891V61.5027L23.7042 55.1467C23.8761 53.6276 24.0123 48.8624 19.7702 44.0829C14.6252 38.3002 0.917236 38.7301 0.917236 38.7301C0.917236 38.7301 6.69996 50.2955 11.6658 54.1578C15.9652 57.5257 21.9127 56.1499 23.3387 55.7486L31.3786 62.4486V71.2337H19.4047L24.2774 101.688H38.8954L43.7681 71.2337H32.0665V65.4223L39.5475 61.2304C41.3676 61.732 46.4553 62.7782 51.2706 60.3705C57.2683 57.3824 62.1911 50.9333 62.1911 50.9333C62.1911 50.9333 47.8382 47.3003 42.2705 53.7279Z" fill="white"/>
<path id="Vector 5" d="M24.1842 101.652L19.1682 71.1982H43.8899L38.8739 101.652H24.1842Z" fill="white"/>
</g>
</svg>
