<svg width="86" height="212" viewBox="0 0 86 212" fill="none" xmlns="http://www.w3.org/2000/svg">
<g id="Illustration-1">
<path id="Vector" d="M36.9138 8.70947C36.9138 8.70947 40.8619 13.7156 41.2662 14.8166C41.5514 15.6185 41.787 16.4372 41.9715 17.2681L44.552 19.1777C44.6332 19.2361 44.7015 19.3105 44.7528 19.3964C44.8041 19.4822 44.8371 19.5777 44.85 19.6768C44.8629 19.776 44.8554 19.8768 44.8278 19.9729C44.8002 20.069 44.7532 20.1584 44.6896 20.2356L42.7371 22.6355C42.7371 22.6355 44.552 28.6566 44.4574 29.5168C44.3628 30.377 38.0578 32.5188 38.0578 32.5188L37.4729 37.1293L25.5166 36.9744L25.4736 28.433L20.6997 17.2509C20.6997 17.2509 24.9747 9.18256 36.9138 8.70947Z" fill="white" stroke="#212121" stroke-width="1.53696" stroke-linecap="round" stroke-linejoin="round"/>
<g id="Vector_2">
<path d="M34.8494 25.5602L36.4579 25.3882C36.622 26.104 36.9311 26.7786 37.3661 27.3704C37.801 27.9621 38.3526 28.4585 38.9867 28.8288" fill="white"/>
<path d="M34.8494 25.5602L36.4579 25.3882C36.622 26.104 36.9311 26.7786 37.3661 27.3704C37.801 27.9621 38.3526 28.4585 38.9867 28.8288" stroke="#212121" stroke-width="1.53696" stroke-linecap="round" stroke-linejoin="round"/>
</g>
<path id="Vector_3" d="M23.237 8.99327C23.237 8.99327 18.7211 9.20832 18.7469 15.4617C18.7727 21.7151 25.1035 27.504 25.4476 28.4244C25.7917 29.3447 29.1807 28.9147 31.5634 28.0287C32.896 27.5944 34.0441 26.725 34.8234 25.56C34.8234 25.56 32.5439 22.2398 33.0084 21.2592C33.4729 20.2786 35.9158 21.2162 35.9158 21.2162C36.4566 20.9091 36.9446 20.517 37.3609 20.055C37.7737 19.4787 39.9844 16.9928 38.4533 15.6853C36.9222 14.3779 34.5395 13.5865 35.5975 11.935C36.6555 10.2835 40.4402 8.67501 39.3306 5.12254C38.221 1.57007 35.7437 1.68189 33.6794 2.84311C31.615 4.00433 31.0473 0.262613 27.0303 2.38722C23.0133 4.51182 21.8865 7.61701 23.237 8.99327Z" fill="#212121" stroke="#212121" stroke-width="1.53696" stroke-linecap="round" stroke-linejoin="round"/>
<path id="Vector_4" d="M28.5185 21.2422C28.433 21.9046 28.433 22.5753 28.5185 23.2378" stroke="white" stroke-width="0.768478" stroke-linecap="round" stroke-linejoin="round"/>
<path id="Vector_5" d="M35.4857 11.1953C35.4857 11.1953 34.6256 12.7866 31.1849 15.8746C29.979 16.9563 29.1225 18.3727 28.7249 19.9432" stroke="white" stroke-width="0.768478" stroke-linecap="round" stroke-linejoin="round"/>
<path id="Vector_6" d="M36.2942 14.3521C36.2942 14.3521 32.7934 19.1002 30.9526 20.5108" stroke="white" stroke-width="0.768478" stroke-linecap="round" stroke-linejoin="round"/>
<path id="Vector_7" d="M74.1948 13.8799C74.1948 15.1615 77.1178 20.6743 77.1178 20.6743L70.5461 37.4991L68.843 48.6124C68.843 48.6124 74.2792 51.3219 75.4233 49.7822C76.5673 48.2425 76.9974 47.1501 78.7177 41.8945C80.438 36.6389 81.0917 21.3538 81.0917 21.3538" stroke="#212121" stroke-width="1.53696" stroke-linecap="round" stroke-linejoin="round"/>
<path id="Vector_8" d="M75.4344 17.4031C75.1909 16.8128 74.6962 16.1376 74.5231 15.5229C74.1366 14.7834 74.1326 13.7681 74.2008 13.4439C74.2974 12.9319 74.9228 11.8966 75.4344 11.8966C75.887 11.8704 76.3361 11.8018 76.776 11.6918C77.4478 10.8341 78.0685 9.93758 78.6349 9.00679C78.8395 8.48913 79.5672 6.32178 80.4938 6.32178C81.4204 6.32178 80.9031 8.38673 80.6984 9.00679C80.4938 9.62684 80.4881 9.82594 80.9031 10.0364C81.318 10.2469 82.762 9.93403 83.2793 11.2765C83.7966 12.619 84.4162 12.619 84.6209 13.2391C84.808 14.2476 84.6994 15.2888 84.3082 16.237C83.8989 17.2666 81.5104 20.7965 81.0954 21.1094" stroke="#212121" stroke-width="1.53839" stroke-linecap="round" stroke-linejoin="round"/>
<path id="Vector_9" d="M40.5005 199.829L51.1923 203.717C51.4429 203.802 51.6728 203.939 51.8673 204.119C52.0618 204.299 52.2167 204.517 52.3219 204.76C52.4272 205.003 52.4806 205.265 52.4786 205.53C52.4767 205.795 52.4194 206.056 52.3105 206.297C52.1633 206.592 51.9072 206.817 51.5966 206.925C50.2375 207.416 36.1137 212.258 31.9935 210.512C31.5731 210.3 31.2186 209.978 30.9684 209.579C30.7183 209.18 30.582 208.721 30.5742 208.25C30.7106 205.076 31.0583 201.915 31.615 198.788C31.615 198.788 36.862 201.274 40.5005 199.829Z" fill="#212121" stroke="#212121" stroke-width="1.53696" stroke-linecap="round" stroke-linejoin="round"/>
<path id="Vector_10" d="M52.3277 206.306C52.4406 206.082 52.5029 205.835 52.5104 205.584C52.5178 205.333 52.4701 205.083 52.3707 204.853C49.4117 206.289 43.124 208.981 37.3953 209.085C35.1199 209.225 32.8363 209.03 30.6172 208.508C30.6718 208.931 30.8268 209.334 31.0693 209.684C31.3117 210.034 31.6345 210.321 32.0106 210.521C36.1566 212.241 50.2547 207.424 51.6138 206.934C51.9244 206.826 52.1805 206.6 52.3277 206.306Z" fill="white" stroke="#212121" stroke-width="1.53696" stroke-linecap="round" stroke-linejoin="round"/>
<path id="Vector_11" d="M10.8593 196.578C10.8593 196.578 9.89595 205.446 10.412 206.323C10.9281 207.201 12.4678 207.794 15.1171 207.622C15.9293 207.604 16.7152 207.331 17.3636 206.842C18.0119 206.352 18.4899 205.671 18.7298 204.895C18.9707 204.259 18.3514 198.461 18.3341 197.446C18.3169 196.431 10.8593 196.578 10.8593 196.578Z" fill="#212121" stroke="#212121" stroke-width="1.53696" stroke-linecap="round" stroke-linejoin="round"/>
<path id="Vector_12" d="M18.7557 203.235C17.9385 204.809 16.8978 205.816 14.1968 205.867C12.8078 205.924 11.4343 205.558 10.2573 204.818C10.2175 205.325 10.2699 205.835 10.4121 206.323C10.9368 207.183 12.4679 207.794 15.1172 207.622C15.9293 207.604 16.7153 207.331 17.3636 206.842C18.012 206.353 18.49 205.672 18.7299 204.895C18.805 204.345 18.8136 203.788 18.7557 203.235Z" fill="white" stroke="#212121" stroke-width="1.53696" stroke-linecap="round" stroke-linejoin="round"/>
<path id="Vector_13" d="M46.2206 94.5366C43.7101 95.7785 41.0629 96.7225 38.333 97.3493L14.6183 91.8701C14.6183 91.8701 13.0442 105.168 13.0872 107.456C13.1302 109.744 13.9473 150.92 13.9473 150.92L10.7131 197.197C11.0486 197.887 11.5779 198.465 12.2363 198.859C12.8947 199.253 13.6537 199.447 14.4204 199.416C15.9943 199.409 17.5485 199.066 18.9793 198.41L29.1464 150.241L31.4086 201.377C31.4086 201.377 32.8107 202.728 36.0105 202.659C36.9472 202.628 37.859 202.35 38.6536 201.853C39.4482 201.356 40.0972 200.658 40.535 199.829C40.535 199.829 42.1091 180.045 44.4573 165.887C46.8056 151.729 47.0894 112.755 47.0894 112.755L46.2206 94.5366Z" fill="white" stroke="#212121" stroke-width="1.53696" stroke-linecap="round" stroke-linejoin="round"/>
<path id="Vector_14" d="M23.6672 101.513C26.7776 102.187 29.9469 102.553 33.129 102.605" stroke="#212121" stroke-width="1.53696" stroke-linecap="round" stroke-linejoin="round"/>
<path id="Vector_15" d="M14.8762 98.9575C14.8762 98.9575 15.9772 100.42 18.8932 100.42" stroke="#212121" stroke-width="1.53696" stroke-linecap="round" stroke-linejoin="round"/>
<path id="Vector_16" d="M38.9351 187.529C38.9351 187.529 41.1199 161.285 42.5822 142.336C43.4645 131.175 43.5852 119.967 42.9434 108.79C42.9434 108.79 46.5905 104.781 44.0358 97.8569" stroke="#212121" stroke-width="1.53696" stroke-linecap="round" stroke-linejoin="round"/>
<path id="Vector_17" d="M38.9349 190.444L37.8425 198.831" stroke="#212121" stroke-width="1.53696" stroke-linecap="round" stroke-linejoin="round"/>
<path id="Vector_18" d="M29.1206 150.249L26.5229 115.894L20.4587 110.062" stroke="#212121" stroke-width="1.53696" stroke-linecap="round" stroke-linejoin="round"/>
<path id="Vector_19" d="M16.4158 75.6816C16.5413 75.2905 16.5362 74.8691 16.4012 74.4812C16.2662 74.0933 16.0086 73.7598 15.6674 73.5311C13.0353 71.7506 6.65292 68.0863 4.61433 72.9118C4.01852 74.7948 3.60376 76.7303 3.3757 78.6921C2.80799 82.5543 3.01443 108.703 3.04023 111.378C3.0406 111.523 3.02327 111.668 2.98862 111.808C2.76498 112.832 1.8274 117.305 2.48112 119.971C3.21226 123.008 4.61432 125.347 6.99697 125.992C9.37962 126.638 10.6785 123.885 10.3086 122.199C9.93873 120.513 10.8247 119.206 10.4548 117.52C10.1538 116.161 8.86353 112.608 8.37324 111.292C8.25486 110.968 8.22516 110.617 8.28722 110.277C8.95814 106.837 12.7171 87.5432 13.0009 86.6142C13.2848 85.6852 15.4868 78.6835 16.4158 75.6816Z" fill="white" stroke="#212121" stroke-width="1.53696" stroke-linecap="round" stroke-linejoin="round"/>
<path id="Vector_20" d="M6.2832 120.548C6.2832 120.548 9.31958 122.672 9.67225 124.634" stroke="#212121" stroke-width="1.53696" stroke-linecap="round" stroke-linejoin="round"/>
<path id="Vector_21" d="M7.24658 118.785C7.24658 118.785 9.65504 120.359 10.3002 121.597" stroke="#212121" stroke-width="1.53696" stroke-linecap="round" stroke-linejoin="round"/>
<g id="Vector_22">
<path d="M7.6853 117.004L8.54547 118.191C8.54547 118.191 8.97554 122.922 10.3174 122.217C11.6593 121.511 10.8679 115.774 10.8679 115.774C10.8679 115.774 10.1884 114.372 8.08958 111.026" fill="white"/>
<path d="M7.6853 117.004L8.54547 118.191C8.54547 118.191 8.97554 122.922 10.3174 122.217C11.6593 121.511 10.8679 115.774 10.8679 115.774C10.8679 115.774 10.1884 114.372 8.08958 111.026" stroke="#212121" stroke-width="1.53696" stroke-linecap="round" stroke-linejoin="round"/>
</g>
<path id="Vector_23" d="M7.5305 112.058C7.99434 113.753 7.95249 115.547 7.41008 117.219C6.63555 118.675 5.77382 120.082 4.82959 121.434C6.09076 122.64 7.2717 123.927 8.36486 125.287" stroke="#212121" stroke-width="1.53696" stroke-linecap="round" stroke-linejoin="round"/>
<path id="Vector_24" d="M9.04436 44.6469L1.24268 73.3161C1.24268 73.3161 7.77131 78.6061 15.8654 78.4771L21.0866 51.2615C21.0866 51.2615 15.2547 38.1613 9.04436 44.6469Z" fill="#212121" stroke="#212121" stroke-width="1.53696" stroke-linecap="round" stroke-linejoin="round"/>
<path id="Vector_25" d="M21.9469 35.2453C21.9469 35.2453 10.4895 40.9396 9.41429 43.5201C8.55412 45.6705 11.1862 60.8953 11.2378 63.5705C11.2895 66.2456 13.5775 89.2291 14.1968 93.6761C14.8161 98.1232 29.6797 100.016 35.3396 98.3038C40.9995 96.5921 46.2551 95.9384 46.2207 94.5105C46.1863 93.0826 45.4293 80.9887 45.739 78.6749C46.0486 76.3611 48.4485 59.003 48.4485 59.003L70.0472 54.5301C70.0472 54.5301 71.045 53.928 71.0708 50.0229C71.0741 46.3369 70.8846 42.6532 70.503 38.987C67.7054 39.6582 64.8124 39.8387 61.953 39.5203C56.7404 39.0558 50.5645 37.6537 49.4635 37.9634C48.3625 38.2731 40.8618 36.7076 38.3932 36.3979C34.9611 35.9334 26.2477 33.0261 21.9469 35.2453Z" fill="#212121" stroke="#212121" stroke-width="1.53696" stroke-linecap="round" stroke-linejoin="round"/>
<path id="Vector_26" d="M12.3301 77.0925L9.32812 51.9155" stroke="white" stroke-width="0.768478" stroke-linecap="round" stroke-linejoin="round"/>
<path id="Vector_27" d="M10.1454 62.8739L8.68311 59.5967" stroke="white" stroke-width="0.768478" stroke-linecap="round" stroke-linejoin="round"/>
<path id="Vector_28" d="M48.4483 58.96L40.0273 60.319" stroke="white" stroke-width="0.768478" stroke-linecap="round" stroke-linejoin="round"/>
<path id="Vector_29" d="M46.5904 59.5967L40.3972 65.4286" stroke="white" stroke-width="0.768478" stroke-linecap="round" stroke-linejoin="round"/>
<path id="Vector_30" d="M65.5398 40.2773C65.5398 40.2773 59.7079 49.0252 45.498 52.3196" stroke="white" stroke-width="0.768478" stroke-linecap="round" stroke-linejoin="round"/>
</g>
</svg>
