<svg width="233" height="160" viewBox="0 0 233 160" fill="none" xmlns="http://www.w3.org/2000/svg">
<g id="Illustration-3" filter="url(#filter0_d_8_419)">
<path id="Vector" d="M208.41 1.09326H11.6959C6.16005 1.09326 1.67236 5.58362 1.67236 11.1228V135.167C1.67236 140.706 6.16005 145.196 11.6959 145.196H208.41C213.946 145.196 218.433 140.706 218.433 135.167V11.1228C218.433 5.58362 213.946 1.09326 208.41 1.09326Z" fill="white" stroke="#212121" stroke-width="1.53696" stroke-miterlimit="10" stroke-linecap="round"/>
<path id="Rectangle 40" d="M1.67236 14.2281C1.67236 7.10231 7.44898 1.32568 14.5748 1.32568H205.531C212.657 1.32568 218.433 7.10231 218.433 14.2281V14.2281H1.67236V14.2281Z" fill="#5A30D3"/>
<path id="Vector_2" d="M87.2782 85.168H74.1991C70.8037 85.168 68.0513 87.9204 68.0513 91.3158V93.2558C68.0513 96.6512 70.8037 99.4037 74.1991 99.4037H87.2782C90.6736 99.4037 93.4261 96.6512 93.4261 93.2558V91.3158C93.4261 87.9204 90.6736 85.168 87.2782 85.168Z" fill="#F6F4FF"/>
<path id="Vector_3" d="M87.2782 101.976H74.1991C70.8037 101.976 68.0513 104.728 68.0513 108.123V110.063C68.0513 113.459 70.8037 116.211 74.1991 116.211H87.2782C90.6736 116.211 93.4261 113.459 93.4261 110.063V108.123C93.4261 104.728 90.6736 101.976 87.2782 101.976Z" fill="#F6F4FF"/>
<path id="Vector_4" d="M115.233 85.168H102.154C98.7588 85.168 96.0063 87.9204 96.0063 91.3158V93.2558C96.0063 96.6512 98.7588 99.4037 102.154 99.4037H115.233C118.629 99.4037 121.381 96.6512 121.381 93.2558V91.3158C121.381 87.9204 118.629 85.168 115.233 85.168Z" fill="#F6F4FF"/>
<path id="Vector_5" d="M143.197 68.3516H130.118C126.723 68.3516 123.97 71.104 123.97 74.4994V76.4394C123.97 79.8348 126.723 82.5873 130.118 82.5873H143.197C146.593 82.5873 149.345 79.8348 149.345 76.4394V74.4994C149.345 71.104 146.593 68.3516 143.197 68.3516Z" fill="#F6F4FF"/>
<path id="Vector_6" d="M143.197 51.5356H130.118C126.723 51.5356 123.97 54.2881 123.97 57.6835V59.6235C123.97 63.0189 126.723 65.7713 130.118 65.7713H143.197C146.593 65.7713 149.345 63.0189 149.345 59.6235V57.6835C149.345 54.2881 146.593 51.5356 143.197 51.5356Z" fill="#F6F4FF"/>
<path id="Vector_7" d="M143.505 20.458H129.811C126.585 20.458 123.97 23.0729 123.97 26.2985C123.97 29.5241 126.585 32.139 129.811 32.139H143.505C146.73 32.139 149.345 29.5241 149.345 26.2985C149.345 23.0729 146.73 20.458 143.505 20.458Z" fill="#5A30D3"/>
<path id="Vector_8" d="M115.541 20.458H101.847C98.6212 20.458 96.0063 23.0729 96.0063 26.2985C96.0063 29.5241 98.6212 32.139 101.847 32.139H115.541C118.766 32.139 121.381 29.5241 121.381 26.2985C121.381 23.0729 118.766 20.458 115.541 20.458Z" fill="#5A30D3"/>
<path id="Vector_9" d="M115.233 101.976H102.154C98.7588 101.976 96.0063 104.728 96.0063 108.123V110.063C96.0063 113.459 98.7588 116.211 102.154 116.211H115.233C118.629 116.211 121.381 113.459 121.381 110.063V108.123C121.381 104.728 118.629 101.976 115.233 101.976Z" fill="#F6F4FF"/>
<path id="Vector_10" d="M115.517 34.9434H102.438C99.0428 34.9434 96.2903 37.6958 96.2903 41.0912V43.0312C96.2903 46.4266 99.0428 49.1791 102.438 49.1791H115.517C118.913 49.1791 121.665 46.4266 121.665 43.0312V41.0912C121.665 37.6958 118.913 34.9434 115.517 34.9434Z" fill="#F6F4FF"/>
<path id="Vector_11" d="M115.233 51.5356H102.154C98.7588 51.5356 96.0063 54.2881 96.0063 57.6835V59.6235C96.0063 63.0189 98.7588 65.7713 102.154 65.7713H115.233C118.629 65.7713 121.381 63.0189 121.381 59.6235V57.6835C121.381 54.2881 118.629 51.5356 115.233 51.5356Z" fill="#F6F4FF"/>
<path id="Vector_12" d="M115.308 68.4854H102.228C98.833 68.4854 96.0806 71.2378 96.0806 74.6332V76.5732C96.0806 79.9686 98.833 82.721 102.228 82.721H115.308C118.703 82.721 121.455 79.9686 121.455 76.5732V74.6332C121.455 71.2378 118.703 68.4854 115.308 68.4854Z" fill="#F6F4FF"/>
<g id="Group 31">
<rect id="Rectangle 41" x="99.344" y="72.8364" width="3.80727" height="5.43896" rx="1.90364" fill="#D4CAFF"/>
<rect id="Rectangle 42" x="104.239" y="72.8364" width="3.80727" height="5.43896" rx="1.90364" fill="#D4CAFF"/>
<rect id="Rectangle 43" x="109.134" y="72.8364" width="3.80727" height="5.43896" rx="1.90364" fill="#D4CAFF"/>
<rect id="Rectangle 44" x="114.573" y="72.8364" width="3.80727" height="5.43896" rx="1.90364" fill="#D4CAFF"/>
</g>
<path id="Vector_13" d="M143.197 101.976H130.118C126.723 101.976 123.97 104.728 123.97 108.123V110.063C123.97 113.459 126.723 116.211 130.118 116.211H143.197C146.593 116.211 149.345 113.459 149.345 110.063V108.123C149.345 104.728 146.593 101.976 143.197 101.976Z" fill="#F6F4FF"/>
<path id="Vector_14" d="M31.3591 34.7192H16.6027C13.2073 34.7192 10.4548 37.4717 10.4548 40.8671V42.8071C10.4548 46.2025 13.2073 48.9549 16.6027 48.9549H31.3591C34.7545 48.9549 37.507 46.2025 37.507 42.8071V40.8671C37.507 37.4717 34.7545 34.7192 31.3591 34.7192Z" fill="#F6F4FF"/>
<path id="Vector_15" d="M31.5933 68.4854H16.8368C13.4414 68.4854 10.689 71.2378 10.689 74.6332V76.5732C10.689 79.9686 13.4414 82.721 16.8368 82.721H31.5933C34.9886 82.721 37.7411 79.9686 37.7411 76.5732V74.6332C37.7411 71.2378 34.9886 68.4854 31.5933 68.4854Z" fill="#F6F4FF"/>
<path id="Vector_16" d="M31.3591 85.168H16.6027C13.2073 85.168 10.4548 87.9204 10.4548 91.3158V93.2558C10.4548 96.6512 13.2073 99.4037 16.6027 99.4037H31.3591C34.7545 99.4037 37.507 96.6512 37.507 93.2558V91.3158C37.507 87.9204 34.7545 85.168 31.3591 85.168Z" fill="#F6F4FF"/>
<path id="Vector_17" d="M31.1785 51.2861H16.422C13.0266 51.2861 10.2742 54.0386 10.2742 57.434V59.374C10.2742 62.7693 13.0266 65.5218 16.422 65.5218H31.1785C34.5738 65.5218 37.3263 62.7693 37.3263 59.374V57.434C37.3263 54.0386 34.5738 51.2861 31.1785 51.2861Z" fill="#F6F4FF"/>
<path id="Vector_18" d="M201.101 20.458H185.73C182.505 20.458 179.89 23.0729 179.89 26.2985C179.89 29.5241 182.505 32.139 185.73 32.139H201.101C204.327 32.139 206.942 29.5241 206.942 26.2985C206.942 23.0729 204.327 20.458 201.101 20.458Z" fill="#5A30D3"/>
<path id="Vector_19" d="M31.3591 101.976H16.6027C13.2073 101.976 10.4548 104.728 10.4548 108.123V110.063C10.4548 113.459 13.2073 116.211 16.6027 116.211H31.3591C34.7545 116.211 37.507 113.459 37.507 110.063V108.123C37.507 104.728 34.7545 101.976 31.3591 101.976Z" fill="#F6F4FF"/>
<path id="Vector_20" d="M171.153 34.7192H158.074C154.678 34.7192 151.926 37.4717 151.926 40.8671V42.8071C151.926 46.2025 154.678 48.9549 158.074 48.9549H171.153C174.548 48.9549 177.301 46.2025 177.301 42.8071V40.8671C177.301 37.4717 174.548 34.7192 171.153 34.7192Z" fill="#F6F4FF"/>
<path id="Vector_21" d="M143.197 85.168H130.118C126.723 85.168 123.97 87.9204 123.97 91.3158V93.2558C123.97 96.6512 126.723 99.4037 130.118 99.4037H143.197C146.593 99.4037 149.345 96.6512 149.345 93.2558V91.3158C149.345 87.9204 146.593 85.168 143.197 85.168Z" fill="#F6F4FF"/>
<path id="Vector_22" d="M171.153 85.168H158.074C154.678 85.168 151.926 87.9204 151.926 91.3158V93.2558C151.926 96.6512 154.678 99.4037 158.074 99.4037H171.153C174.548 99.4037 177.301 96.6512 177.301 93.2558V91.3158C177.301 87.9204 174.548 85.168 171.153 85.168Z" fill="#F6F4FF"/>
<path id="Vector_23" d="M171.153 51.5356H158.074C154.678 51.5356 151.926 54.2881 151.926 57.6835V59.6235C151.926 63.0189 154.678 65.7713 158.074 65.7713H171.153C174.548 65.7713 177.301 63.0189 177.301 59.6235V57.6835C177.301 54.2881 174.548 51.5356 171.153 51.5356Z" fill="#F6F4FF"/>
<path id="Vector_24" d="M171.153 68.3516H158.074C154.678 68.3516 151.926 71.104 151.926 74.4994V76.4394C151.926 79.8348 154.678 82.5873 158.074 82.5873H171.153C174.548 82.5873 177.301 79.8348 177.301 76.4394V74.4994C177.301 71.104 174.548 68.3516 171.153 68.3516Z" fill="#F6F4FF"/>
<path id="Vector_25" d="M171.153 101.976H158.074C154.678 101.976 151.926 104.728 151.926 108.123V110.063C151.926 113.459 154.678 116.211 158.074 116.211H171.153C174.548 116.211 177.301 113.459 177.301 110.063V108.123C177.301 104.728 174.548 101.976 171.153 101.976Z" fill="#F6F4FF"/>
<path id="Vector_26" d="M143.046 34.7637H129.967C126.572 34.7637 123.819 37.5162 123.819 40.9115V42.8515C123.819 46.2469 126.572 48.9994 129.967 48.9994H143.046C146.442 48.9994 149.194 46.2469 149.194 42.8515V40.9115C149.194 37.5161 146.442 34.7637 143.046 34.7637Z" fill="#F6F4FF"/>
<g id="Group 32">
<rect id="Rectangle 41_2" x="127.083" y="39.1147" width="3.80727" height="5.43896" rx="1.90364" fill="#D4CAFF"/>
<rect id="Rectangle 42_2" x="131.978" y="39.1147" width="3.80727" height="5.43896" rx="1.90364" fill="#D4CAFF"/>
<rect id="Rectangle 43_2" x="136.873" y="39.1147" width="3.80727" height="5.43896" rx="1.90364" fill="#D4CAFF"/>
<rect id="Rectangle 44_2" x="142.312" y="39.1147" width="3.80727" height="5.43896" rx="1.90364" fill="#D4CAFF"/>
</g>
<g id="Group 33">
<rect id="Rectangle 41_3" x="14.4963" y="72.8364" width="3.80727" height="5.43896" rx="1.90364" fill="#D4CAFF"/>
<rect id="Rectangle 42_3" x="19.3914" y="72.8364" width="3.80727" height="5.43896" rx="1.90364" fill="#D4CAFF"/>
<rect id="Rectangle 43_3" x="24.2864" y="72.8364" width="3.80727" height="5.43896" rx="1.90364" fill="#D4CAFF"/>
<rect id="Rectangle 44_3" x="29.7253" y="72.8364" width="3.80727" height="5.43896" rx="1.90364" fill="#D4CAFF"/>
</g>
<path id="Vector_27" d="M200.794 101.976H186.037C182.642 101.976 179.89 104.728 179.89 108.123V110.063C179.89 113.459 182.642 116.211 186.037 116.211H200.794C204.189 116.211 206.942 113.459 206.942 110.063V108.123C206.942 104.728 204.189 101.976 200.794 101.976Z" fill="#F6F4FF"/>
<path id="Vector_28" d="M171.46 20.458H157.766C154.541 20.458 151.926 23.0729 151.926 26.2985C151.926 29.5241 154.541 32.139 157.766 32.139H171.46C174.686 32.139 177.301 29.5241 177.301 26.2985C177.301 23.0729 174.686 20.458 171.46 20.458Z" fill="#5A30D3"/>
<path id="Vector_29" d="M200.794 85.168H186.037C182.642 85.168 179.89 87.9204 179.89 91.3158V93.2558C179.89 96.6512 182.642 99.4037 186.037 99.4037H200.794C204.189 99.4037 206.942 96.6512 206.942 93.2558V91.3158C206.942 87.9204 204.189 85.168 200.794 85.168Z" fill="#F6F4FF"/>
<path id="Vector_30" d="M171.153 118.792H158.074C154.678 118.792 151.926 121.544 151.926 124.939V127.688C151.926 131.083 154.678 133.836 158.074 133.836H171.153C174.548 133.836 177.301 131.083 177.301 127.688V124.939C177.301 121.544 174.548 118.792 171.153 118.792Z" fill="#F6F4FF"/>
<path id="Vector_31" d="M200.794 68.3516H186.037C182.642 68.3516 179.89 71.104 179.89 74.4994V76.4394C179.89 79.8348 182.642 82.5873 186.037 82.5873H200.794C204.189 82.5873 206.942 79.8348 206.942 76.4394V74.4994C206.942 71.104 204.189 68.3516 200.794 68.3516Z" fill="#F6F4FF"/>
<path id="Vector_32" d="M115.233 118.792H102.154C98.7588 118.792 96.0063 121.544 96.0063 124.939V127.688C96.0063 131.083 98.7588 133.836 102.154 133.836H115.233C118.629 133.836 121.381 131.083 121.381 127.688V124.939C121.381 121.544 118.629 118.792 115.233 118.792Z" fill="#F6F4FF"/>
<path id="Vector_33" d="M143.197 118.792H130.118C126.723 118.792 123.97 121.544 123.97 124.939V127.688C123.97 131.083 126.723 133.836 130.118 133.836H143.197C146.593 133.836 149.345 131.083 149.345 127.688V124.939C149.345 121.544 146.593 118.792 143.197 118.792Z" fill="#F6F4FF"/>
<path id="Vector_34" d="M200.63 51.2861H185.874C182.479 51.2861 179.726 54.0386 179.726 57.434V59.374C179.726 62.7693 182.479 65.5218 185.874 65.5218H200.63C204.026 65.5218 206.778 62.7693 206.778 59.374V57.434C206.778 54.0386 204.026 51.2861 200.63 51.2861Z" fill="#F6F4FF"/>
<path id="Vector_35" d="M200.794 118.792H186.037C182.642 118.792 179.89 121.544 179.89 124.939V127.688C179.89 131.083 182.642 133.836 186.037 133.836H200.794C204.189 133.836 206.942 131.083 206.942 127.688V124.939C206.942 121.544 204.189 118.792 200.794 118.792Z" fill="#F6F4FF"/>
<path id="Vector_36" d="M31.3591 118.792H16.6027C13.2073 118.792 10.4548 121.544 10.4548 124.939V127.688C10.4548 131.083 13.2073 133.836 16.6027 133.836H31.3591C34.7545 133.836 37.507 131.083 37.507 127.688V124.939C37.507 121.544 34.7545 118.792 31.3591 118.792Z" fill="#F6F4FF"/>
<path id="Vector_37" d="M200.794 34.7192H186.037C182.642 34.7192 179.89 37.4717 179.89 40.8671V42.8071C179.89 46.2025 182.642 48.9549 186.037 48.9549H200.794C204.189 48.9549 206.942 46.2025 206.942 42.8071V40.8671C206.942 37.4717 204.189 34.7192 200.794 34.7192Z" fill="#F6F4FF"/>
<path id="Vector_38" d="M31.6665 20.458H16.2953C13.0697 20.458 10.4548 23.0729 10.4548 26.2985C10.4548 29.5241 13.0697 32.139 16.2953 32.139H31.6664C34.8921 32.139 37.507 29.5241 37.507 26.2985C37.507 23.0729 34.8921 20.458 31.6665 20.458Z" fill="#5A30D3"/>
<path id="Vector_39" d="M59.6215 20.458H45.9277C42.702 20.458 40.0872 23.0729 40.0872 26.2985C40.0872 29.5241 42.702 32.139 45.9277 32.139H59.6215C62.8471 32.139 65.462 29.5241 65.462 26.2985C65.462 23.0729 62.8471 20.458 59.6215 20.458Z" fill="#5A30D3"/>
<path id="Vector_40" d="M59.3141 85.168H46.235C42.8396 85.168 40.0872 87.9204 40.0872 91.3158V93.2558C40.0872 96.6512 42.8396 99.4037 46.235 99.4037H59.3141C62.7095 99.4037 65.462 96.6512 65.462 93.2558V91.3158C65.462 87.9204 62.7095 85.168 59.3141 85.168Z" fill="#F6F4FF"/>
<path id="Vector_41" d="M87.5856 20.458H73.8918C70.6662 20.458 68.0513 23.0729 68.0513 26.2985C68.0513 29.5241 70.6661 32.139 73.8918 32.139H87.5856C90.8112 32.139 93.4261 29.5241 93.4261 26.2985C93.4261 23.0729 90.8112 20.458 87.5856 20.458Z" fill="#5A30D3"/>
<path id="Vector_42" d="M87.2782 51.5356H74.1991C70.8037 51.5356 68.0513 54.2881 68.0513 57.6835V59.6235C68.0513 63.0189 70.8037 65.7713 74.1991 65.7713H87.2782C90.6736 65.7713 93.4261 63.0189 93.4261 59.6235V57.6835C93.4261 54.2881 90.6736 51.5356 87.2782 51.5356Z" fill="#F6F4FF"/>
<path id="Vector_43" d="M59.3141 101.976H46.235C42.8396 101.976 40.0872 104.728 40.0872 108.123V110.063C40.0872 113.459 42.8396 116.211 46.235 116.211H59.3141C62.7095 116.211 65.462 113.459 65.462 110.063V108.123C65.462 104.728 62.7095 101.976 59.3141 101.976Z" fill="#F6F4FF"/>
<path id="Vector_44" d="M87.2782 34.7192H74.1991C70.8037 34.7192 68.0513 37.4717 68.0513 40.8671V42.8071C68.0513 46.2025 70.8037 48.9549 74.1991 48.9549H87.2782C90.6736 48.9549 93.4261 46.2025 93.4261 42.8071V40.8671C93.4261 37.4717 90.6736 34.7192 87.2782 34.7192Z" fill="#F6F4FF"/>
<path id="Vector_45" d="M59.6066 34.9434H46.5275C43.1321 34.9434 40.3796 37.6958 40.3796 41.0912V43.0312C40.3796 46.4266 43.1321 49.1791 46.5275 49.1791H59.6066C63.002 49.1791 65.7544 46.4266 65.7544 43.0312V41.0912C65.7544 37.6958 63.002 34.9434 59.6066 34.9434Z" fill="#F6F4FF"/>
<path id="Vector_46" d="M87.2782 68.3516H74.1991C70.8037 68.3516 68.0513 71.104 68.0513 74.4994V76.4394C68.0513 79.8348 70.8037 82.5873 74.1991 82.5873H87.2782C90.6736 82.5873 93.4261 79.8348 93.4261 76.4394V74.4994C93.4261 71.104 90.6736 68.3516 87.2782 68.3516Z" fill="#F6F4FF"/>
<path id="Vector_47" d="M59.3141 68.3516H46.235C42.8396 68.3516 40.0872 71.104 40.0872 74.4994V76.4394C40.0872 79.8348 42.8396 82.5873 46.235 82.5873H59.3141C62.7095 82.5873 65.462 79.8348 65.462 76.4394V74.4994C65.462 71.104 62.7095 68.3516 59.3141 68.3516Z" fill="#F6F4FF"/>
<path id="Vector_48" d="M59.3141 118.792H46.235C42.8396 118.792 40.0872 121.544 40.0872 124.939V127.688C40.0872 131.083 42.8396 133.836 46.235 133.836H59.3141C62.7095 133.836 65.462 131.083 65.462 127.688V124.939C65.462 121.544 62.7095 118.792 59.3141 118.792Z" fill="#F6F4FF"/>
<path id="Vector_49" d="M59.3141 51.5356H46.235C42.8396 51.5356 40.0872 54.2881 40.0872 57.6835V59.6235C40.0872 63.0189 42.8396 65.7713 46.235 65.7713H59.3141C62.7095 65.7713 65.462 63.0189 65.462 59.6235V57.6835C65.462 54.2881 62.7095 51.5356 59.3141 51.5356Z" fill="#F6F4FF"/>
<path id="Vector_50" d="M87.2782 118.792H74.1991C70.8037 118.792 68.0513 121.544 68.0513 124.939V127.688C68.0513 131.083 70.8037 133.836 74.1991 133.836H87.2782C90.6736 133.836 93.4261 131.083 93.4261 127.688V124.939C93.4261 121.544 90.6736 118.792 87.2782 118.792Z" fill="#F6F4FF"/>
<path id="Vector_51" d="M14.7116 10.0677C16.097 10.0677 17.2201 8.94463 17.2201 7.55925C17.2201 6.17386 16.097 5.05078 14.7116 5.05078C13.3262 5.05078 12.2031 6.17386 12.2031 7.55925C12.2031 8.94463 13.3262 10.0677 14.7116 10.0677Z" fill="#F6F4FF" fill-opacity="0.3"/>
<path id="Vector_52" d="M26.2503 7.56513C26.2515 7.0685 26.1052 6.5827 25.83 6.16929C25.5548 5.75587 25.1631 5.43344 24.7045 5.24285C24.2459 5.05226 23.7411 5.00209 23.2539 5.0987C22.7668 5.1953 22.3193 5.43432 21.9681 5.78549C21.6169 6.13666 21.3779 6.58417 21.2813 7.07131C21.1847 7.55845 21.2349 8.06331 21.4255 8.52191C21.6161 8.98051 21.9385 9.37222 22.3519 9.64741C22.7653 9.92259 23.2511 10.0689 23.7477 10.0677C24.4115 10.0677 25.048 9.80404 25.5173 9.33472C25.9867 8.86539 26.2503 8.22885 26.2503 7.56513Z" fill="#F6F4FF" fill-opacity="0.3"/>
<path id="Vector_53" d="M35.2808 7.56513C35.282 7.0685 35.1357 6.5827 34.8605 6.16929C34.5854 5.75587 34.1936 5.43344 33.735 5.24285C33.2764 5.05226 32.7716 5.00209 32.2844 5.0987C31.7973 5.1953 31.3498 5.43432 30.9986 5.78549C30.6475 6.13666 30.4084 6.58417 30.3118 7.07131C30.2152 7.55845 30.2654 8.06331 30.456 8.52191C30.6466 8.98051 30.969 9.37222 31.3824 9.64741C31.7958 9.92259 32.2816 10.0689 32.7783 10.0677C33.442 10.0677 34.0785 9.80404 34.5479 9.33472C35.0172 8.86539 35.2808 8.22885 35.2808 7.56513Z" fill="#F6F4FF" fill-opacity="0.3"/>
<g id="Group 30">
<rect id="Rectangle 41_4" x="75.2136" y="69.7695" width="3.51185" height="5.01693" rx="1.75593" fill="#D4CAFF"/>
<rect id="Rectangle 42_4" x="79.7288" y="69.7695" width="3.51185" height="5.01693" rx="1.75593" fill="#D4CAFF"/>
<rect id="Rectangle 43_4" x="84.2441" y="69.7695" width="3.51185" height="5.01693" rx="1.75593" fill="#D4CAFF"/>
<rect id="Rectangle 44_4" x="89.261" y="69.7695" width="3.51185" height="5.01693" rx="1.75593" fill="#D4CAFF"/>
</g>
<g id="Group 29">
<rect id="Rectangle 41_5" x="22.5359" y="54.2168" width="3.51185" height="5.01693" rx="1.75593" fill="#D4CAFF"/>
<rect id="Rectangle 42_5" x="27.051" y="54.2168" width="3.51185" height="5.01693" rx="1.75593" fill="#D4CAFF"/>
<rect id="Rectangle 43_5" x="31.5664" y="54.2168" width="3.51185" height="5.01693" rx="1.75593" fill="#D4CAFF"/>
<rect id="Rectangle 44_5" x="36.5833" y="54.2168" width="3.51185" height="5.01693" rx="1.75593" fill="#D4CAFF"/>
</g>
<g id="Group 31_2">
<rect id="Rectangle 41_6" x="152.474" y="69.7695" width="3.51185" height="5.01693" rx="1.75593" fill="#D4CAFF"/>
<rect id="Rectangle 42_6" x="156.99" y="69.7695" width="3.51185" height="5.01693" rx="1.75593" fill="#D4CAFF"/>
<rect id="Rectangle 43_6" x="161.505" y="69.7695" width="3.51185" height="5.01693" rx="1.75593" fill="#D4CAFF"/>
<rect id="Rectangle 44_6" x="166.522" y="69.7695" width="3.51185" height="5.01693" rx="1.75593" fill="#D4CAFF"/>
</g>
</g>
<defs>
<filter id="filter0_d_8_419" x="0.903809" y="0.324707" width="231.498" height="158.84" filterUnits="userSpaceOnUse" color-interpolation-filters="sRGB">
<feFlood flood-opacity="0" result="BackgroundImageFix"/>
<feColorMatrix in="SourceAlpha" type="matrix" values="0 0 0 0 0 0 0 0 0 0 0 0 0 0 0 0 0 0 127 0" result="hardAlpha"/>
<feOffset dx="11" dy="11"/>
<feGaussianBlur stdDeviation="1.1"/>
<feComposite in2="hardAlpha" operator="out"/>
<feColorMatrix type="matrix" values="0 0 0 0 0 0 0 0 0 0 0 0 0 0 0 0 0 0 0.17 0"/>
<feBlend mode="normal" in2="BackgroundImageFix" result="effect1_dropShadow_8_419"/>
<feBlend mode="normal" in="SourceGraphic" in2="effect1_dropShadow_8_419" result="shape"/>
</filter>
</defs>
</svg>
