<svg width="70" height="208" viewBox="0 0 70 208" fill="none" xmlns="http://www.w3.org/2000/svg">
<g id="Illustration-2">
<path id="Vector" d="M12.4438 100.087C12.4438 100.087 9.78585 115.003 9.38158 123.587C8.9773 132.171 11.0159 138.296 11.833 146.88C12.6502 155.465 17.9574 188.357 17.9574 191.015C18.1057 193.498 17.3849 195.956 15.9188 197.965C14.2845 200.21 8.9687 202.266 9.38158 203.066C9.79446 203.866 12.2373 205.113 16.5295 203.685C20.8217 202.258 21.0282 200.821 22.6625 200.821C24.2968 200.821 27.7719 199.797 27.1525 197.38C26.5332 194.963 23.5055 189.828 23.7119 180.831C24.1162 159.989 23.0926 124.06 23.0926 124.06L29.6298 104.036L12.4438 100.087Z" fill="white" stroke="black" stroke-width="1.53696" stroke-linecap="round" stroke-linejoin="round"/>
<path id="Vector_2" d="M16.1423 197.63L15.9186 197.965C14.2843 200.21 8.96854 202.266 9.38142 203.066C9.7943 203.866 12.2372 205.113 16.5294 203.685C20.8216 202.258 21.028 200.821 22.6623 200.821C24.2966 200.821 27.7717 199.797 27.1524 197.38C26.9632 196.606 26.5244 195.565 26.0256 194.224C24.0636 195.719 21.9806 197.048 19.798 198.198C18.826 198.559 17.3809 198.155 16.1423 197.63Z" fill="black" stroke="black" stroke-width="1.53696" stroke-linecap="round" stroke-linejoin="round"/>
<path id="Vector_3" d="M30.5674 12.0067C30.5674 12.0067 29.604 8.72086 28.9417 5.79631C28.2793 2.87175 33.2425 1.60731 38.6873 1.06541C44.1321 0.523508 51.8306 4.58347 54.1014 11.0347C56.3722 17.4859 54.4627 41.364 54.6949 46.5766C54.9272 51.7892 55.4433 66.2313 50.1533 67.1345C44.8633 68.0377 39.298 68.3904 34.6703 59.3242C30.0427 50.2581 35.1176 26.4144 35.6681 21.6233C36.2186 16.8322 30.8426 12.7034 30.8426 12.7034L30.5674 12.0067Z" fill="black" stroke="black" stroke-width="1.53696" stroke-linecap="round" stroke-linejoin="round"/>
<path id="Vector_4" d="M42.1966 5.22852C42.1966 5.22852 41.8354 10.6992 45.4825 13.6151C49.1296 16.5311 53.8605 23.4554 53.8605 28.926" stroke="white" stroke-width="0.768478" stroke-linecap="round" stroke-linejoin="round"/>
<path id="Vector_5" d="M49.1296 20.1782C49.1296 20.1782 51.7101 29.64 49.4909 37.6739" stroke="white" stroke-width="0.768478" stroke-linecap="round" stroke-linejoin="round"/>
<path id="Vector_6" d="M21.0625 102.65C21.0625 102.65 16.7617 122.09 20.727 138.889C21.8108 143.482 38.5238 184.684 39.8398 191.273C41.1559 197.862 41.1559 203.797 43.7966 206.102C46.4373 208.407 48.0974 207.418 46.7555 199.84C45.855 195.608 44.4093 191.511 42.4547 187.652C42.4547 187.652 37.5088 156.023 36.8465 149.108C36.1841 142.192 32.236 133.952 32.236 133.952L38.498 106.934L21.0625 102.65Z" fill="white" stroke="black" stroke-width="1.53696" stroke-linecap="round" stroke-linejoin="round"/>
<path id="Vector_7" d="M45.9041 196.271C45.5859 197.991 44.8977 199.479 43.4613 199.196C42.7886 199.067 42.1688 198.743 41.6793 198.264C41.1897 197.785 40.8521 197.173 40.7087 196.503C41.3539 200.856 41.8786 204.443 43.7967 206.111C46.4288 208.416 48.0975 207.427 46.7557 199.849C46.5401 198.641 46.2558 197.447 45.9041 196.271Z" fill="black" stroke="black" stroke-width="1.53696" stroke-linecap="round" stroke-linejoin="round"/>
<path id="Vector_8" d="M40.5022 194.55H40.4248C40.4248 194.705 40.4678 194.86 40.4936 195.006C40.4889 194.854 40.4917 194.702 40.5022 194.55Z" fill="black" stroke="black" stroke-width="1.53696" stroke-linecap="round" stroke-linejoin="round"/>
<path id="Vector_9" d="M27.0236 36.0137C24.9619 36.508 23.1621 37.7611 21.9831 39.5231C20.2627 42.3703 4.2379 54.4211 2.70681 55.7286C1.17572 57.036 1.39076 63.6163 5.2873 63.6163C9.18384 63.6163 22.3787 53.5438 22.3787 53.5438C22.3787 53.5438 26.3183 48.7183 27.6343 44.34C28.9504 39.9618 29.8707 36.4524 27.0236 36.0137Z" fill="white" stroke="black" stroke-width="1.53696" stroke-linecap="round" stroke-linejoin="round"/>
<path id="Vector_10" d="M31.4015 24.849C29.8704 24.849 28.3565 28.4444 28.3565 28.4444L26.9114 28.6595C28.2103 27.1198 29.8704 24.849 29.8704 24.849C31.1778 22.6555 30.7305 19.3697 29.8704 19.5934C29.0102 19.817 23.2988 22.0018 22.4214 23.0942C21.544 24.1866 18.9119 32.9517 18.0431 33.829C17.1744 34.7064 2.70646 53.1053 1.17537 57.0534C-0.35572 61.0016 3.79887 65.8185 7.30833 63.4101C10.8178 61.0016 13.88 53.544 15.2046 48.3228C16.5293 43.1016 21.9999 33.2011 21.9999 33.2011C21.9999 33.2011 23.2729 32.1689 24.5804 31.0163C26.0087 30.6564 27.4158 30.2171 28.7952 29.7003C29.6553 29.2616 32.081 26.1908 32.081 26.1908C32.081 26.1908 32.9326 24.849 31.4015 24.849Z" fill="white" stroke="black" stroke-width="1.53696" stroke-linecap="round" stroke-linejoin="round"/>
<path id="Vector_11" d="M27.7201 17.7611L23.2817 24.7972C23.0448 25.1733 22.9533 25.623 23.0246 26.0617C23.0959 26.5005 23.3249 26.8981 23.6688 27.1798L25.6902 28.84C25.8867 29.0004 26.1146 29.118 26.3592 29.1853C26.6038 29.2527 26.8598 29.2682 27.1108 29.231C27.3618 29.1937 27.6022 29.1045 27.8167 28.9691C28.0312 28.8336 28.2152 28.6549 28.3567 28.4443L33.0618 21.4684C33.3231 21.0788 33.425 20.6039 33.3466 20.1414C33.2682 19.6789 33.0154 19.2641 32.6403 18.9825L30.3522 17.2622C30.1501 17.1124 29.9191 17.006 29.6738 16.9498C29.4285 16.8937 29.1743 16.8888 28.927 16.9357C28.6798 16.9826 28.4449 17.0801 28.2372 17.2221C28.0295 17.3642 27.8535 17.5477 27.7201 17.7611Z" fill="black" stroke="black" stroke-width="1.53696" stroke-linecap="round" stroke-linejoin="round"/>
<path id="Vector_12" d="M42.9193 20.9609C42.9193 20.9609 41.6376 29.1755 41.2763 32.3151C40.9151 35.4547 41.0097 36.1342 43.6504 36.4353C46.2911 36.7363 50.6521 38.0782 52.3638 42.1209C54.0756 46.1637 44.1321 58.4038 41.1817 61.0445C38.2314 63.6852 36.9153 67.2463 37.569 70.0332C38.2228 72.8201 45.9384 81.8346 45.603 90.9782C45.2675 100.122 34.2144 126.778 34.2144 126.778C34.2144 126.778 19.4798 120.809 8.8396 122.804C8.8396 122.804 13.8629 87.4859 16.8477 78.179C19.8325 68.872 22.8689 63.8314 22.628 61.8359C22.3872 59.8403 18.6712 54.017 19.5744 49.0969C20.4776 44.1767 23.6516 39.8673 25.1311 37.1922C26.6106 34.5171 29.7846 34.5515 30.9372 34.6805C32.0898 34.8096 33.7241 35.1708 34.5413 33.9236C35.3584 32.6763 36.0896 26.2423 36.0896 26.2423L42.9193 20.9609Z" fill="black" stroke="black" stroke-width="1.53696" stroke-linecap="round" stroke-linejoin="round"/>
<path id="Vector_13" d="M25.802 56.6235L32.3564 61.363" stroke="black" stroke-width="1.53696" stroke-linecap="round" stroke-linejoin="round"/>
<path id="Vector_14" d="M31.8661 77.1123C31.8661 77.1123 25.2945 89.6535 23.8064 98.6164" stroke="black" stroke-width="1.53696" stroke-linecap="round" stroke-linejoin="round"/>
<path id="Vector_15" d="M24.1074 89.9546C24.1074 89.9546 22.3096 97.6961 21.415 104.577" stroke="black" stroke-width="1.53696" stroke-linecap="round" stroke-linejoin="round"/>
<path id="Vector_16" d="M50.0243 39.7212C50.0243 39.7212 47.8308 40.8222 45.4224 44.5467C43.0139 48.2712 40.8205 54.6192 41.2592 56.1503C41.6979 57.6814 45.8611 55.0579 45.8611 55.0579C45.8611 55.0579 50.2565 74.7642 54.1788 73.2417C62.0665 70.171 51.5554 41.2609 51.5554 41.2609C51.5554 41.2609 51.5554 40.1771 50.0243 39.7212Z" fill="white" stroke="black" stroke-width="1.53696" stroke-linecap="round" stroke-linejoin="round"/>
<path id="Vector_17" d="M33.0877 42.4132C28.632 41.3122 29.8191 37.063 30.9287 34.6717H30.9717C32.1329 34.8093 33.7586 35.162 34.5758 33.9148C35.3929 32.6675 36.1241 26.2335 36.1241 26.2335L42.9193 20.9951C42.9193 20.9951 41.6377 29.2097 41.2764 32.3493C40.9152 35.4889 41.0098 36.1684 43.6505 36.4694C43.6505 36.435 39.4357 44.0217 33.0877 42.4132Z" fill="white" stroke="black" stroke-width="1.53696" stroke-linecap="round" stroke-linejoin="round"/>
<path id="Vector_18" d="M36.9067 4.87598C36.4884 7.21096 36.7358 9.61653 37.6206 11.8175C39.0915 15.0001 45.3621 18.6988 45.3621 18.6988C45.3621 18.6988 47.8307 16.1183 48.192 18.8622C48.5533 21.6061 47.3921 24.2898 45.5599 24.2468C43.7278 24.2038 43.4611 22.1652 43.4611 22.1652C41.8363 24.5282 39.4497 26.2619 36.7002 27.0768C31.8317 28.6853 29.3544 28.4014 28.7781 24.6597C28.2018 20.918 28.8728 16.6344 30.5759 11.9809C32.279 7.32744 36.2272 4.96199 36.9067 4.87598Z" fill="white" stroke="black" stroke-width="1.53696" stroke-linecap="round" stroke-linejoin="round"/>
<path id="Vector_19" d="M55.0562 36.8914L55.2799 33.3905C56.3623 32.4303 57.3849 31.4048 58.342 30.3197C59.6581 28.7887 60.5355 26.5952 61.6279 27.4726C62.7203 28.35 60.0968 30.9821 60.0968 30.9821L59.8731 32.7024L64.26 31.3949C64.26 31.3949 68.4232 27.2318 68.6382 28.3242C68.8532 29.4166 66.4448 33.1411 64.6987 35.1194C62.9525 37.0978 57.6883 37.6999 57.6883 37.6999C57.6883 37.6999 57.4647 55.2215 57.4647 60.4857C57.4647 65.7498 56.811 71.6677 55.2799 72.7516C53.7488 73.8354 48.9233 72.9666 50.0243 64.4252C51.1253 55.8838 55.0562 36.8914 55.0562 36.8914Z" fill="white" stroke="black" stroke-width="1.53696" stroke-linecap="round" stroke-linejoin="round"/>
<path id="Vector_20" d="M45.861 55.0748L44.5449 50.9116" stroke="black" stroke-width="1.53696" stroke-linecap="round" stroke-linejoin="round"/>
</g>
</svg>
