<svg width="21" height="20" viewBox="0 0 21 20" fill="none" xmlns="http://www.w3.org/2000/svg">
<path d="M10.011 2.92705C10.3103 2.00574 11.6137 2.00574 11.9131 2.92705L12.9827 6.21885C13.1165 6.63087 13.5005 6.90983 13.9337 6.90983H17.3949C18.3636 6.90983 18.7664 8.14945 17.9827 8.71885L15.1825 10.7533C14.832 11.0079 14.6854 11.4593 14.8193 11.8713L15.8888 15.1631C16.1882 16.0844 15.1337 16.8506 14.35 16.2812L11.5498 14.2467C11.1993 13.9921 10.7247 13.9921 10.3743 14.2467L7.57408 16.2812C6.79037 16.8506 5.73589 16.0844 6.03524 15.1631L7.10481 11.8713C7.23868 11.4593 7.09203 11.0079 6.74154 10.7533L3.94137 8.71885C3.15766 8.14945 3.56043 6.90983 4.52915 6.90983H7.99035C8.42358 6.90983 8.80754 6.63087 8.94141 6.21885L10.011 2.92705Z" fill="#FFE000"/>
</svg>
