<svg width="20" height="21" viewBox="0 0 20 21" fill="none" xmlns="http://www.w3.org/2000/svg">
<path d="M9.04894 3.42705C9.3483 2.50574 10.6517 2.50574 10.9511 3.42705L12.0206 6.71885C12.1545 7.13087 12.5385 7.40983 12.9717 7.40983H16.4329C17.4016 7.40983 17.8044 8.64945 17.0207 9.21885L14.2205 11.2533C13.87 11.5079 13.7234 11.9593 13.8572 12.3713L14.9268 15.6631C15.2261 16.5844 14.1717 17.3506 13.388 16.7812L10.5878 14.7467C10.2373 14.4921 9.7627 14.4921 9.41221 14.7467L6.61204 16.7812C5.82833 17.3506 4.77385 16.5844 5.0732 15.6631L6.14277 12.3713C6.27665 11.9593 6.12999 11.5079 5.7795 11.2533L2.97933 9.21885C2.19562 8.64945 2.59839 7.40983 3.56712 7.40983H7.02832C7.46154 7.40983 7.8455 7.13087 7.97937 6.71885L9.04894 3.42705Z" fill="#D9D9D9"/>
</svg>
