<svg width="11" height="21" viewBox="0 0 11 21" fill="none" xmlns="http://www.w3.org/2000/svg">
<path d="M0.295606 1.71043C0.20118 1.61501 0.12736 1.50277 0.078361 1.38012C0.0293618 1.25746 0.0061425 1.12679 0.0100301 0.995565C0.0139177 0.86434 0.0448356 0.735131 0.101018 0.615315C0.157201 0.4955 0.237548 0.387424 0.337472 0.297259C0.437396 0.207094 0.554941 0.136605 0.683394 0.0898166C0.811848 0.0430285 0.948694 0.0208575 1.08612 0.0245697C1.22355 0.0282819 1.35886 0.0578043 1.48434 0.111452C1.60982 0.165099 1.723 0.24182 1.81743 0.337235L10.7139 9.33196C10.8976 9.51752 11 9.76319 11 10.0186C11 10.2739 10.8976 10.5196 10.7139 10.7052L1.81743 19.7009C1.72362 19.7984 1.61047 19.8771 1.48453 19.9325C1.35859 19.9879 1.22238 20.0188 1.08381 20.0235C0.945238 20.0282 0.80707 20.0066 0.677332 19.9599C0.547593 19.9132 0.428869 19.8423 0.328055 19.7514C0.227242 19.6605 0.146348 19.5514 0.0900744 19.4304C0.0338003 19.3094 0.00326716 19.1789 0.000248143 19.0465C-0.00277087 18.9142 0.0217842 18.7825 0.0724878 18.6593C0.123192 18.5361 0.199033 18.4237 0.295606 18.3287L8.51386 10.0186L0.295606 1.71043Z" fill="black"/>
</svg>
