<svg width="11" height="21" viewBox="0 0 11 21" fill="none" xmlns="http://www.w3.org/2000/svg">
<path d="M10.7044 2.11521C10.7988 2.0198 10.8726 1.90756 10.9216 1.7849C10.9706 1.66225 10.9939 1.53157 10.99 1.40035C10.9861 1.26912 10.9552 1.13992 10.899 1.0201C10.8428 0.900285 10.7625 0.792209 10.6625 0.702044C10.5626 0.611879 10.4451 0.54139 10.3166 0.494602C10.1882 0.447814 10.0513 0.425643 9.91388 0.429355C9.77645 0.433067 9.64114 0.46259 9.51566 0.516237C9.39018 0.569884 9.277 0.646605 9.18257 0.74202L0.286094 9.73674C0.10237 9.9223 0 10.168 0 10.4233C0 10.6787 0.10237 10.9244 0.286094 11.1099L9.18257 20.1057C9.27638 20.2032 9.38953 20.2819 9.51547 20.3373C9.64141 20.3927 9.77762 20.4236 9.91619 20.4283C10.0548 20.433 10.1929 20.4114 10.3227 20.3647C10.4524 20.318 10.5711 20.2471 10.6719 20.1562C10.7728 20.0653 10.8537 19.9562 10.9099 19.8352C10.9662 19.7141 10.9967 19.5837 10.9998 19.4513C11.0028 19.3189 10.9782 19.1873 10.9275 19.0641C10.8768 18.9408 10.801 18.8285 10.7044 18.7335L2.48614 10.4233L10.7044 2.11521Z" fill="#7047EA"/>
</svg>
