<svg width="6" height="11" viewBox="0 0 6 11" fill="none" xmlns="http://www.w3.org/2000/svg">
<path d="M4.97401 5.5L0.12457 1.13902C0.0846387 1.10387 0.0530697 1.06215 0.03169 1.01626C0.0103103 0.970368 -0.000455723 0.921224 1.47817e-05 0.87167C0.000485286 0.822116 0.0121832 0.773136 0.0344313 0.727564C0.0566794 0.681992 0.0890358 0.640732 0.129629 0.606173C0.170221 0.571615 0.218244 0.544442 0.270918 0.52623C0.323592 0.508017 0.379871 0.499125 0.436499 0.500068C0.493126 0.501011 0.548978 0.511771 0.600821 0.531725C0.652665 0.551679 0.699471 0.580431 0.738531 0.616317L5.87867 5.23865C5.95647 5.30862 6 5.40238 6 5.5C6 5.59762 5.95647 5.69138 5.87867 5.76135L0.738531 10.3837C0.699471 10.4196 0.652665 10.4483 0.600821 10.4683C0.548978 10.4882 0.493126 10.499 0.436499 10.4999C0.379871 10.5009 0.323592 10.492 0.270918 10.4738C0.218244 10.4556 0.170221 10.4284 0.129629 10.3938C0.0890358 10.3593 0.0566794 10.318 0.0344313 10.2724C0.0121832 10.2269 0.000485286 10.1779 1.47817e-05 10.1283C-0.000455723 10.0788 0.0103103 10.0296 0.03169 9.98374C0.0530697 9.93785 0.0846387 9.89613 0.12457 9.86098L4.97401 5.5Z" fill="#7047EA"/>
</svg>
