<svg width="7" height="13" viewBox="0 0 7 13" fill="none" xmlns="http://www.w3.org/2000/svg">
<path d="M6.81189 1.09607C6.87198 1.03405 6.91895 0.961093 6.95013 0.881366C6.98132 0.801639 6.99609 0.716703 6.99362 0.631406C6.99114 0.54611 6.97147 0.462124 6.93572 0.384244C6.89996 0.306364 6.84883 0.236115 6.78525 0.177508C6.72166 0.1189 6.64686 0.0730826 6.56511 0.0426703C6.48337 0.0122581 6.39629 -0.00215306 6.30883 0.000259849C6.22138 0.00267276 6.13527 0.0218624 6.05542 0.0567331C5.97557 0.0916038 5.90354 0.141473 5.84345 0.203492L0.18206 6.05006C0.0651445 6.17067 0 6.33036 0 6.49635C0 6.66233 0.0651445 6.82202 0.18206 6.94264L5.84345 12.7899C5.90315 12.8532 5.97516 12.9044 6.0553 12.9404C6.13544 12.9764 6.22212 12.9965 6.3103 12.9996C6.39849 13.0026 6.48641 12.9886 6.56897 12.9582C6.65153 12.9278 6.72708 12.8818 6.79124 12.8227C6.85539 12.7636 6.90687 12.6927 6.94268 12.614C6.97849 12.5354 6.99792 12.4506 6.99984 12.3645C7.00176 12.2785 6.98614 12.1929 6.95387 12.1128C6.92161 12.0327 6.87334 11.9597 6.81189 11.8979L1.58209 6.49635L6.81189 1.09607Z" fill="#1E3240"/>
</svg>
