<svg width="41" height="40" viewBox="0 0 41 40" fill="none" xmlns="http://www.w3.org/2000/svg">
<g clip-path="url(#clip0_2_529)">
<path d="M17.7015 5.24256C17.5881 5.12886 17.4533 5.03864 17.305 4.97709C17.1566 4.91553 16.9976 4.88385 16.837 4.88385C16.6764 4.88385 16.5174 4.91553 16.369 4.97709C16.2207 5.03864 16.086 5.12886 15.9725 5.24256L1.32064 19.8945C1.20733 20.0081 1.11752 20.1429 1.05634 20.2912C0.995167 20.4395 0.963827 20.5985 0.964113 20.7589V37.8528C0.964113 38.1766 1.09275 38.4872 1.32173 38.7162C1.55071 38.9452 1.86128 39.0738 2.18511 39.0738H13.174C13.4979 39.0738 13.8084 38.9452 14.0374 38.7162C14.2664 38.4872 14.395 38.1766 14.395 37.8528V28.0849H19.279V37.8528C19.279 38.1766 19.4076 38.4872 19.6366 38.7162C19.8656 38.9452 20.1762 39.0738 20.5 39.0738H31.4889C31.8127 39.0738 32.1233 38.9452 32.3523 38.7162C32.5813 38.4872 32.7099 38.1766 32.7099 37.8528V20.7589C32.7102 20.5985 32.6789 20.4395 32.6177 20.2912C32.5565 20.1429 32.4667 20.0081 32.3534 19.8945L29.0469 16.5905V8.54901C29.0469 8.22518 28.9183 7.91462 28.6893 7.68564C28.4603 7.45666 28.1498 7.32802 27.8259 7.32802H25.384C25.0601 7.32802 24.7496 7.45666 24.5206 7.68564C24.2916 7.91462 24.163 8.22518 24.163 8.54901V11.7065L17.7015 5.24256ZM3.4061 36.6318V21.2644L16.837 7.83351L30.2679 21.2644V36.6318H21.721V26.8639C21.721 26.5401 21.5923 26.2295 21.3634 26.0005C21.1344 25.7715 20.8238 25.6429 20.5 25.6429H13.174C12.8502 25.6429 12.5396 25.7715 12.3107 26.0005C12.0817 26.2295 11.953 26.5401 11.953 26.8639V36.6318H3.4061Z" fill="#E6E6E6" fill-opacity="0.6"/>
<path d="M25.0274 5.24256C24.9139 5.12886 24.7792 5.03864 24.6309 4.97709C24.4825 4.91553 24.3235 4.88385 24.1629 4.88385C24.0023 4.88385 23.8433 4.91553 23.6949 4.97709C23.5466 5.03864 23.4119 5.12886 23.2984 5.24256L8.64654 19.8945C8.53323 20.0081 8.44342 20.1429 8.38224 20.2912C8.32106 20.4395 8.28972 20.5985 8.29001 20.7589V37.8528C8.29001 38.1766 8.41865 38.4872 8.64763 38.7162C8.87661 38.9452 9.18718 39.0738 9.511 39.0738H20.4999C20.8238 39.0738 21.1343 38.9452 21.3633 38.7162C21.5923 38.4872 21.7209 38.1766 21.7209 37.8528V28.0849H26.6049V37.8528C26.6049 38.1766 26.7335 38.4872 26.9625 38.7162C27.1915 38.9452 27.5021 39.0738 27.8259 39.0738H38.8148C39.1386 39.0738 39.4492 38.9452 39.6782 38.7162C39.9072 38.4872 40.0358 38.1766 40.0358 37.8528V20.7589C40.0361 20.5985 40.0048 20.4395 39.9436 20.2912C39.8824 20.1429 39.7926 20.0081 39.6793 19.8945L36.3728 16.5905V8.54901C36.3728 8.22518 36.2442 7.91462 36.0152 7.68564C35.7862 7.45666 35.4757 7.32802 35.1518 7.32802H32.7099C32.386 7.32802 32.0755 7.45666 31.8465 7.68564C31.6175 7.91462 31.4889 8.22518 31.4889 8.54901V11.7065L25.0274 5.24256ZM10.732 36.6318V21.2644L24.1629 7.83351L37.5938 21.2644V36.6318H29.0469V26.8639C29.0469 26.5401 28.9182 26.2295 28.6893 26.0005C28.4603 25.7715 28.1497 25.6429 27.8259 25.6429H20.4999C20.1761 25.6429 19.8655 25.7715 19.6366 26.0005C19.4076 26.2295 19.2789 26.5401 19.2789 26.8639V36.6318H10.732Z" fill="#7047EA"/>
</g>
<defs>
<clipPath id="clip0_2_529">
<rect width="39.0717" height="39.0717" fill="white" transform="translate(0.964142)"/>
</clipPath>
</defs>
</svg>
