<svg width="24" height="19" viewBox="0 0 24 19" fill="none" xmlns="http://www.w3.org/2000/svg">
<path fill-rule="evenodd" clip-rule="evenodd" d="M12 16.3494C13.1819 16.3494 14.3522 16.1775 15.4442 15.8433C16.5361 15.5091 17.5282 15.0193 18.364 14.4018C19.1997 13.7844 19.8626 13.0513 20.3149 12.2446C20.7672 11.4378 21 10.5732 21 9.69993C21 8.8267 20.7672 7.96203 20.3149 7.15527C19.8626 6.34852 19.1997 5.61548 18.364 4.99801C17.5282 4.38055 16.5361 3.89075 15.4442 3.55658C14.3522 3.22241 13.1819 3.05042 12 3.05042C9.61305 3.05042 7.32387 3.75099 5.63604 4.99801C3.94821 6.24504 3 7.93637 3 9.69993C3 11.4635 3.94821 13.1548 5.63604 14.4018C7.32387 15.6489 9.61305 16.3494 12 16.3494ZM10.783 6.7372L16.427 9.05419C16.5828 9.1182 16.7126 9.21181 16.803 9.32535C16.8934 9.43889 16.9411 9.56821 16.9411 9.69993C16.9411 9.83165 16.8934 9.96098 16.803 10.0745C16.7126 10.188 16.5828 10.2817 16.427 10.3457L10.783 12.6627C10.6002 12.7377 10.3941 12.7762 10.1851 12.7743C9.97599 12.7723 9.77123 12.7301 9.59107 12.6517C9.4109 12.5733 9.26159 12.4615 9.15791 12.3273C9.05424 12.1932 8.9998 12.0414 9 11.8869V7.51298C8.9998 7.3585 9.05424 7.20666 9.15791 7.07251C9.26159 6.93836 9.4109 6.82656 9.59107 6.74817C9.77123 6.66978 9.97599 6.62753 10.1851 6.62561C10.3941 6.62368 10.6002 6.66215 10.783 6.7372Z" fill="#7047EA"/>
</svg>
