<svg width="73" height="56" viewBox="0 0 73 56" fill="none" xmlns="http://www.w3.org/2000/svg">
<path fill-rule="evenodd" clip-rule="evenodd" d="M36.5 48.7317C40.0949 48.7317 43.6547 48.2014 46.976 47.171C50.2972 46.1406 53.315 44.6304 55.857 42.7266C58.3991 40.8227 60.4155 38.5625 61.7912 36.075C63.1669 33.5875 63.875 30.9214 63.875 28.229C63.875 25.5365 63.1669 22.8705 61.7912 20.383C60.4155 17.8955 58.3991 15.6353 55.857 13.7314C53.315 11.8276 50.2972 10.3173 46.976 9.28699C43.6547 8.25664 40.0949 7.72632 36.5 7.72632C29.2397 7.72632 22.2768 9.88642 17.143 13.7314C12.0091 17.5764 9.125 22.7913 9.125 28.229C9.125 33.6666 12.0091 38.8816 17.143 42.7266C22.2768 46.5716 29.2397 48.7317 36.5 48.7317ZM32.7983 19.0939L49.9655 26.238C50.4394 26.4353 50.8343 26.724 51.1092 27.074C51.3841 27.4241 51.5291 27.8229 51.5291 28.229C51.5291 28.6351 51.3841 29.0339 51.1092 29.384C50.8343 29.734 50.4394 30.0227 49.9655 30.22L32.7983 37.3641C32.2424 37.5955 31.6155 37.7141 30.9796 37.7082C30.3436 37.7022 29.7208 37.572 29.1728 37.3303C28.6248 37.0886 28.1707 36.7438 27.8553 36.3302C27.54 35.9166 27.3744 35.4484 27.375 34.9721V21.4859C27.3744 21.0096 27.54 20.5414 27.8553 20.1278C28.1707 19.7142 28.6248 19.3694 29.1728 19.1277C29.7208 18.886 30.3436 18.7557 30.9796 18.7498C31.6155 18.7439 32.2424 18.8625 32.7983 19.0939Z" fill="white"/>
</svg>
