<svg width="30" height="31" viewBox="0 0 30 31" fill="none" xmlns="http://www.w3.org/2000/svg">
<path d="M5.625 26.7859C5.625 26.7859 3.75 26.7859 3.75 24.9109C3.75 23.0359 5.625 17.4109 15 17.4109C24.375 17.4109 26.25 23.0359 26.25 24.9109C26.25 26.7859 24.375 26.7859 24.375 26.7859H5.625ZM15 15.5359C16.4918 15.5359 17.9226 14.9432 18.9775 13.8883C20.0324 12.8334 20.625 11.4027 20.625 9.91086C20.625 8.41902 20.0324 6.98827 18.9775 5.93338C17.9226 4.87849 16.4918 4.28586 15 4.28586C13.5082 4.28586 12.0774 4.87849 11.0225 5.93338C9.96763 6.98827 9.375 8.41902 9.375 9.91086C9.375 11.4027 9.96763 12.8334 11.0225 13.8883C12.0774 14.9432 13.5082 15.5359 15 15.5359Z" fill="black"/>
</svg>
