<svg width="11" height="21" viewBox="0 0 11 21" fill="none" xmlns="http://www.w3.org/2000/svg">
<path d="M10.7044 2.53904C10.7988 2.44363 10.8726 2.33139 10.9216 2.20873C10.9706 2.08607 10.9939 1.9554 10.99 1.82418C10.9861 1.69295 10.9552 1.56374 10.899 1.44393C10.8428 1.32411 10.7625 1.21604 10.6625 1.12587C10.5626 1.03571 10.4451 0.965218 10.3166 0.91843C10.1882 0.871642 10.0513 0.849471 9.91388 0.853183C9.77645 0.856895 9.64114 0.886418 9.51566 0.940065C9.39018 0.993712 9.277 1.07043 9.18257 1.16585L0.286094 10.1606C0.10237 10.3461 0 10.5918 0 10.8472C0 11.1025 0.10237 11.3482 0.286094 11.5338L9.18257 20.5295C9.27638 20.627 9.38953 20.7057 9.51547 20.7611C9.64141 20.8165 9.77762 20.8475 9.91619 20.8522C10.0548 20.8569 10.1929 20.8352 10.3227 20.7885C10.4524 20.7418 10.5711 20.6709 10.6719 20.58C10.7728 20.4891 10.8537 20.38 10.9099 20.259C10.9662 20.138 10.9967 20.0075 10.9998 19.8751C11.0028 19.7428 10.9782 19.6111 10.9275 19.4879C10.8768 19.3647 10.801 19.2523 10.7044 19.1573L2.48614 10.8472L10.7044 2.53904Z" fill="#18A0FB"/>
</svg>
