<svg width="11" height="21" viewBox="0 0 11 21" fill="none" xmlns="http://www.w3.org/2000/svg">
<path d="M10.7044 2.36717C10.7988 2.27175 10.8726 2.15951 10.9216 2.03686C10.9706 1.9142 10.9939 1.78353 10.99 1.6523C10.9861 1.52108 10.9552 1.39187 10.899 1.27205C10.8428 1.15224 10.7625 1.04416 10.6625 0.953997C10.5626 0.863832 10.4451 0.793343 10.3166 0.746555C10.1882 0.699767 10.0513 0.677596 9.91388 0.681308C9.77645 0.68502 9.64114 0.714543 9.51566 0.76819C9.39018 0.821837 9.277 0.898559 9.18257 0.993974L0.286094 9.98869C0.10237 10.1743 0 10.4199 0 10.6753C0 10.9307 0.10237 11.1763 0.286094 11.3619L9.18257 20.3576C9.27638 20.4551 9.38953 20.5338 9.51547 20.5892C9.64141 20.6446 9.77762 20.6756 9.91619 20.6803C10.0548 20.685 10.1929 20.6633 10.3227 20.6166C10.4524 20.5699 10.5711 20.499 10.6719 20.4081C10.7728 20.3172 10.8537 20.2081 10.9099 20.0871C10.9662 19.9661 10.9967 19.8356 10.9998 19.7033C11.0028 19.5709 10.9782 19.4393 10.9275 19.316C10.8768 19.1928 10.801 19.0804 10.7044 18.9854L2.48614 10.6753L10.7044 2.36717Z" fill="#7047EA"/>
</svg>
