<svg width="7" height="14" viewBox="0 0 7 14" fill="none" xmlns="http://www.w3.org/2000/svg">
<path d="M6.81189 1.59607C6.87198 1.53405 6.91895 1.46109 6.95013 1.38137C6.98132 1.30164 6.99609 1.2167 6.99362 1.13141C6.99114 1.04611 6.97147 0.962124 6.93572 0.884244C6.89996 0.806364 6.84883 0.736115 6.78525 0.677508C6.72166 0.6189 6.64686 0.573083 6.56511 0.54267C6.48337 0.512258 6.39629 0.497847 6.30883 0.50026C6.22138 0.502673 6.13527 0.521862 6.05542 0.556733C5.97557 0.591604 5.90354 0.641473 5.84345 0.703492L0.18206 6.55006C0.0651445 6.67067 0 6.83036 0 6.99635C0 7.16233 0.0651445 7.32202 0.18206 7.44264L5.84345 13.2899C5.90315 13.3532 5.97516 13.4044 6.0553 13.4404C6.13544 13.4764 6.22212 13.4965 6.3103 13.4996C6.39849 13.5026 6.48641 13.4886 6.56897 13.4582C6.65153 13.4278 6.72708 13.3818 6.79124 13.3227C6.85539 13.2636 6.90687 13.1927 6.94268 13.114C6.97849 13.0354 6.99792 12.9506 6.99984 12.8645C7.00176 12.7785 6.98614 12.6929 6.95387 12.6128C6.92161 12.5327 6.87334 12.4597 6.81189 12.3979L1.58209 6.99635L6.81189 1.59607Z" fill="#1E3240"/>
</svg>
